<svg xmlns="http://www.w3.org/2000/svg" width="77" height="75" viewBox="0 0 77 75" fill="none"><path d="M55.1401 74.1936C59.2185 71.3217 63.9597 68.9007 67.8248 67.7178C68.3068 67.5704 68.6303 67.0144 68.3298 66.4606C68.3151 66.3421 66.1943 30.0524 66.3541 22.7999C66.3759 21.8075 66.2454 20.2877 64.0197 19.5952C61.06 18.6776 58.0533 17.947 55.0335 17.3514C55.4215 16.4492 54.9193 9.5903 50.034 5.64063C47.8329 3.86057 45.0489 2.99966 42.3502 3.11091C38.2986 -0.812374 30.1651 -0.335232 24.9593 6.48454C23.2445 8.73123 21.9975 11.5101 21.2234 14.7506C17.0331 14.7438 12.9147 14.9019 8.85507 15.6194C8.30475 15.5111 7.73672 15.9169 7.81567 16.5734C6.55383 28.9877 5.15077 45.081 5.49051 59.56C5.49397 59.7044 5.54009 59.8338 5.60422 59.9528C5.604 59.9684 5.60169 59.9839 5.60234 59.9992C3.92417 60.799 1.91455 61.6669 0.279682 62.3935C16.4958 65.4893 37.1331 69.5883 53.2998 73.9388C53.8317 74.1847 54.5748 74.5944 55.1401 74.1936ZM22.6549 16.5268C29.638 16.5959 37.106 16.8179 43.9853 17.5174C43.9319 18.6616 43.8393 19.8027 43.7026 20.9389C36.4708 19.8564 29.6166 19.6774 22.3368 18.7259C22.5274 17.1259 22.4448 17.6496 22.6549 16.5268ZM38.9801 5.72133C39.8181 5.30687 40.7237 5.05554 41.6527 4.9365C43.8893 7.6497 44.0669 12.1796 44.0351 15.7403C40.6454 15.3989 37.2891 15.1836 34.0106 15.0407C34.0483 14.8796 33.4397 8.46341 38.9801 5.72133ZM45.7487 17.7102C50.7688 18.2868 55.832 19.161 60.7835 20.5042C60.1019 20.6948 59.0579 21.0973 56.8159 21.6957C56.8038 21.6989 56.1109 21.9752 56.0365 22.0312L54.1379 23.4749C53.4763 22.7282 46.4357 21.3833 45.4521 21.2147C45.5936 20.0508 45.6914 18.8824 45.7487 17.7102ZM62.7705 21.8617C62.8803 21.8398 62.9782 21.794 63.0675 21.7375C63.9316 36.3884 64.7148 51.1094 66.4083 65.2717C66.4036 65.2692 66.4011 65.2645 66.3964 65.2621C64.8776 64.4867 63.3715 63.6481 61.9129 62.7728C61.9363 62.3714 62.1082 65.5411 59.8912 33.3353C59.8578 32.8464 59.4323 32.4902 58.947 32.5133C58.4587 32.5467 58.091 32.9698 58.125 33.4575C60.331 64.8636 60.103 62.7048 60.2266 63.0323C59.7594 63.4784 59.0404 66.0266 55.6192 70.9222C55.7254 55.7031 55.4949 40.3073 54.9212 25.0982C54.9283 25.0931 54.9367 25.0917 54.9436 25.0864C56.4868 24.3051 55.2703 23.3611 62.7705 21.8617ZM61.3997 64.5229C62.6888 65.2851 64.0074 66.019 65.3405 66.7054C63.0809 67.5547 60.6829 68.7083 58.315 70.076C59.454 68.2888 60.4862 66.4322 61.3997 64.5229ZM48.9203 7.01717C51.6878 9.25493 53.3791 13.0767 53.3347 16.9919C53.3346 17.0058 53.3416 17.0173 53.3421 17.031C50.8283 16.5789 48.3104 16.2195 45.8045 15.9347C45.8504 12.2663 45.6649 8.02367 43.8006 4.91575C45.625 5.10684 47.4291 5.81111 48.9203 7.01717ZM26.367 7.55903C30.4245 2.24338 36.3862 1.34995 39.9641 3.48242C39.3572 3.65002 38.7613 3.85423 38.195 4.13496C34.0352 6.19257 31.7159 11.1951 32.29 14.9732C29.3127 14.8644 25.9165 14.7925 23.0414 14.7611C23.7624 11.9348 24.8729 9.51605 26.367 7.55903ZM20.8552 16.5183C20.6684 17.572 20.7585 17.017 20.5824 18.4868C17.9544 18.094 15.3563 17.5684 12.8149 16.8611C15.4563 16.5971 18.138 16.5198 20.8552 16.5183ZM9.48462 17.6755C13.0302 18.9011 16.6933 19.6979 20.3957 20.248C20.1904 22.8482 20.1829 25.4549 20.1869 28.0009C20.1871 28.1133 20.213 28.2188 20.2514 28.3178C20.0835 28.1954 19.9617 27.9911 19.9604 27.7922C19.9569 27.3045 19.5615 26.9125 19.075 26.9125C19.075 26.9125 19.0709 26.9125 19.0686 26.9125C18.5798 26.916 18.1861 27.3149 18.1896 27.8037C18.2067 30.2784 21.53 31.1376 22.7319 28.9508C22.9671 28.522 22.8103 27.9836 22.3815 27.7484C22.2466 27.6733 22.1022 27.6504 21.9584 27.6501C21.955 25.2855 21.9707 22.8754 22.154 20.4889C29.4288 21.4359 36.3267 21.6244 43.4602 22.6941C42.8098 26.7942 42.2301 27.867 42.2491 28.4058C42.0603 28.2433 41.9189 28.0196 41.8912 27.7807C41.8341 27.2953 41.3949 26.946 40.9083 27.0036C40.423 27.0613 40.0754 27.5005 40.1319 27.9859C40.4231 30.4648 43.6111 31.2926 45.0778 29.2967C45.3677 28.9036 45.2835 28.349 44.8893 28.0585C44.6687 27.8968 44.4006 27.8635 44.1537 27.9249C44.5907 26.2871 44.9452 24.6341 45.2094 22.9688C47.9035 23.4325 50.5619 24.0391 53.142 24.8751C53.7399 40.5944 53.9751 56.5214 53.8444 72.2421C44.4155 67.9194 35.8182 66.2183 7.25695 59.2447C6.9505 45.2861 8.2609 29.8282 9.48462 17.6755Z" fill="black"></path><path d="M40.9008 49.584C41.8439 46.9785 41.5868 43.951 40.1941 41.2763C36.1441 33.4977 26.4261 32.5225 21.6851 38.0644C18.8525 41.3778 18.4086 46.5888 20.6302 50.4556C25.3325 58.6355 37.8934 57.8876 40.9008 49.584ZM23.0311 39.215C27.2396 34.2949 35.4319 35.9659 38.6239 42.0949C39.7704 44.2981 39.9993 46.8725 39.2361 48.9811C36.7616 55.8115 26.1127 56.4428 22.1659 49.5725C20.3051 46.3341 20.6688 41.9785 23.0311 39.215Z" fill="black"></path><path d="M63.9851 9.30565L62.4996 13.9668C62.3514 14.4325 62.6085 14.9306 63.0749 15.0793C63.5553 15.2281 64.0417 14.9601 64.1874 14.504L65.6729 9.8429C65.8211 9.37713 65.564 8.87909 65.0976 8.73036C64.6313 8.58395 64.1338 8.83989 63.9851 9.30565Z" fill="black"></path><path d="M72.7193 14.3553C73.0208 13.9702 72.9534 13.4134 72.5683 13.1125C72.1827 12.8081 71.6264 12.8784 71.3255 13.2624C70.2856 14.5905 68.9298 15.6753 67.4045 16.3994C66.963 16.6103 66.7756 17.1384 66.9855 17.5799C67.1935 18.0166 67.7173 18.21 68.1654 17.9996C69.9363 17.1568 71.5111 15.8967 72.7193 14.3553Z" fill="black"></path><path d="M70.5358 23.0849H70.564L75.8627 22.9189C76.3515 22.9028 76.7354 22.4947 76.7199 22.0058C76.7043 21.517 76.3066 21.1446 75.8074 21.1481L70.5087 21.3141C70.0199 21.3303 69.636 21.7384 69.6515 22.2272C69.6665 22.7068 70.0596 23.0849 70.5358 23.0849Z" fill="black"></path></svg>