<svg xmlns="http://www.w3.org/2000/svg" width="27" height="19" viewBox="0 0 27 19" fill="#977354
"><path d="M0.000488281 0.223656V1.91143H16.0315V14.5647H10.8375C10.6549 13.8435 10.2372 13.2035 9.65049 12.746C9.06873 12.277 8.34174 12.0252 7.59449 12.0341C6.84689 12.025 6.11951 12.2767 5.53749 12.746C4.9511 13.2037 4.53382 13.8436 4.35149 14.5647H3.37549V10.3473H1.68849V16.2525H4.35149C4.53382 16.9736 4.9511 17.6135 5.53749 18.0713C6.11951 18.5405 6.84689 18.7922 7.59449 18.7832C8.34174 18.792 9.06873 18.5403 9.65049 18.0713C10.2372 17.6137 10.6549 16.9738 10.8375 16.2525H17.8515C18.0338 16.9736 18.4511 17.6135 19.0375 18.0713C19.6195 18.5405 20.3469 18.7922 21.0945 18.7832C21.8417 18.792 22.5687 18.5403 23.1505 18.0713C23.7372 17.6137 24.1549 16.9738 24.3375 16.2525H27.0005V9.37142L26.9475 9.23944L25.0755 3.5972H17.7195V0.222656L0.000488281 0.223656ZM0.844488 3.5982V5.28497H8.43849V3.5982H0.844488ZM17.7195 5.28497H23.8635L25.3135 9.60839V14.5647H24.3375C24.1549 13.8435 23.7372 13.2035 23.1505 12.746C22.5687 12.277 21.8417 12.0252 21.0945 12.0341C20.3469 12.025 19.6195 12.2767 19.0375 12.746C18.4511 13.2037 18.0338 13.8436 17.8515 14.5647H17.7195V5.28497ZM1.68849 6.97275V8.66052H6.75049V6.97375L1.68849 6.97275ZM7.59449 13.7218C7.81723 13.7169 8.03863 13.7577 8.24502 13.8416C8.4514 13.9255 8.63841 14.0508 8.79449 14.2098C8.95348 14.3658 9.0788 14.5528 9.16273 14.7592C9.24667 14.9655 9.28742 15.1869 9.28249 15.4096C9.28742 15.6323 9.24667 15.8537 9.16273 16.06C9.0788 16.2664 8.95348 16.4534 8.79449 16.6094C8.63841 16.7684 8.4514 16.8937 8.24502 16.9776C8.03863 17.0616 7.81723 17.1023 7.59449 17.0974C7.37174 17.1023 7.15035 17.0616 6.94396 16.9776C6.73757 16.8937 6.55057 16.7684 6.39449 16.6094C6.2355 16.4534 6.11017 16.2664 6.02624 16.06C5.94231 15.8537 5.90155 15.6323 5.90649 15.4096C5.90155 15.1869 5.94231 14.9655 6.02624 14.7592C6.11017 14.5528 6.2355 14.3658 6.39449 14.2098C6.55057 14.0508 6.73757 13.9255 6.94396 13.8416C7.15035 13.7577 7.37174 13.7169 7.59449 13.7218ZM21.0945 13.7218C21.3172 13.7169 21.5386 13.7577 21.745 13.8416C21.9514 13.9255 22.1384 14.0508 22.2945 14.2098C22.4535 14.3658 22.5788 14.5528 22.6627 14.7592C22.7467 14.9655 22.7874 15.1869 22.7825 15.4096C22.7874 15.6323 22.7467 15.8537 22.6627 16.06C22.5788 16.2664 22.4535 16.4534 22.2945 16.6094C22.1384 16.7684 21.9514 16.8937 21.745 16.9776C21.5386 17.0616 21.3172 17.1023 21.0945 17.0974C20.8717 17.1023 20.6503 17.0616 20.444 16.9776C20.2376 16.8937 20.0506 16.7684 19.8945 16.6094C19.7355 16.4534 19.6102 16.2664 19.5262 16.06C19.4423 15.8537 19.4016 15.6323 19.4065 15.4096C19.4016 15.1869 19.4423 14.9655 19.5262 14.7592C19.6102 14.5528 19.7355 14.3658 19.8945 14.2098C20.0506 14.0508 20.2376 13.9255 20.444 13.8416C20.6503 13.7577 20.8717 13.7169 21.0945 13.7218Z"></path></svg>