<svg
          xmlns="http://www.w3.org/2000/svg"
          width="236"
          height="105"
          viewBox="0 0 236 105"
          fill="none"
        >
          <path
            d="M94.083 11.6035C103.918 11.6035 109.754 16.1426 111.591 25.2207C111.591 26.4095 111.699 27.5983 111.915 28.7871C111.915 41.8099 104.134 58.4531 88.5713 78.7168C78.1423 89.1458 71.2256 94.8737 67.8213 95.9004C58.3649 101.52 50.3675 104.33 43.8291 104.33C38.6416 103.52 36.0479 101.358 36.0479 97.8457C36.0479 93.5768 39.0739 88.2812 45.126 81.959C49.665 77.9603 56.6898 74.1777 66.2002 70.6113C77.5479 67.5853 85.0049 66.0723 88.5713 66.0723C88.7874 66.7207 89.0036 67.0449 89.2197 67.0449C89.2197 67.9635 85.5452 68.8281 78.1963 69.6387C67.9834 72.2324 59.986 75.0423 54.2041 78.0684C45.2881 83.418 40.1006 89.362 38.6416 95.9004V99.4668C39.4521 101.196 41.2894 102.061 44.1533 102.061C55.2308 102.061 68.4157 95.0358 83.708 80.9863C101.216 60.6146 109.97 43.2148 109.97 28.7871C109.97 18.8444 104.566 13.873 93.7588 13.873C82.7894 13.873 68.5238 20.3574 50.9619 33.3262C41.6676 72.0163 35.7236 94.4954 33.1299 100.764H32.4814C32.0492 100.548 31.7249 100.439 31.5088 100.439V99.1426C33.0218 94.9277 34.5348 90.1725 36.0479 84.877C44.0452 53.2656 48.0439 36.8385 48.0439 35.5957H47.3955C36.1559 43.3229 20.9176 56.1836 1.68066 74.1777H0.708008V73.2051C25.0244 50.1315 40.695 36.7305 47.7197 33.002C48.9085 33.002 50.6377 27.8145 52.9072 17.4395L53.5557 17.1152H54.2041C54.6364 17.1693 54.8525 17.3854 54.8525 17.7637L52.2588 28.7871C52.4749 28.7871 52.583 28.8952 52.583 29.1113C70.2529 17.4395 84.0863 11.6035 94.083 11.6035Z"
            fill="#977354"
          ></path>
          <path
            d="M119.618 46.2139H120.591C121.023 46.2679 121.24 46.484 121.24 46.8623V47.5107C119.997 49.2399 119.24 50.1045 118.97 50.1045H118.646C117.781 49.7262 117.349 48.9697 117.349 47.835C117.349 47.5648 118.105 47.0244 119.618 46.2139ZM116.376 53.6709H117.349C117.349 53.887 117.457 54.2113 117.673 54.6436C115.728 60.2093 114.755 64.208 114.755 66.6396V69.5576H116.052C118.7 69.5576 123.563 65.3428 130.642 56.9131H131.615C131.615 57.3454 131.723 57.5615 131.939 57.5615C125.346 67.0719 119.618 71.8271 114.755 71.8271H114.431C113.134 71.2327 112.486 69.8278 112.486 67.6123C114.107 58.318 115.404 53.6709 116.376 53.6709Z"
            fill="#977354"
          ></path>
          <path
            d="M135.833 51.9688C136.859 51.9688 137.94 52.9414 139.075 54.8867C137.778 59.3177 137.13 62.4518 137.13 64.2891C137.562 65.2617 137.994 65.8021 138.426 65.9102C141.074 65.9102 144.857 62.8841 149.774 56.832H150.423V58.1289C145.883 64.6133 141.885 67.8555 138.426 67.8555C136.751 67.8555 135.671 66.2344 135.184 62.9922H134.86C130.213 67.7474 126.863 70.125 124.809 70.125C122.864 69.6927 121.891 68.612 121.891 66.8828C121.891 61.3171 125.998 56.4538 134.212 52.293L135.833 51.9688ZM123.837 66.5586V67.207C123.837 67.5312 124.161 67.8555 124.809 68.1797C129.294 67.153 133.401 62.9382 137.13 55.5352V55.2109C137.13 54.8867 136.697 54.4544 135.833 53.9141C132.699 53.9141 129.24 56.5078 125.458 61.6953C124.377 63.6947 123.837 65.3158 123.837 66.5586Z"
            fill="#977354"
          ></path>
          <path
            d="M164.286 55.0488H164.935C165.799 55.373 166.231 56.2376 166.231 57.6426C164.935 63.1003 164.286 66.4505 164.286 67.6934V68.9902C164.34 69.4225 164.556 69.6387 164.935 69.6387H165.259C167.366 69.6387 171.905 65.4238 178.876 56.9941H179.2C179.632 57.0482 179.849 57.2643 179.849 57.6426V58.291C173.202 67.3691 168.231 71.9082 164.935 71.9082C163.259 71.9082 162.287 70.6113 162.017 68.0176V67.6934L163.962 57.6426H163.313C162.341 57.9128 159.099 61.5872 153.587 68.666H152.938C152.506 68.666 152.29 68.4499 152.29 68.0176C153.155 64.181 153.587 61.4792 153.587 59.9121H152.938C152.236 60.2904 149.426 63.3164 144.509 68.9902H143.536C143.536 68.5579 143.428 68.3418 143.212 68.3418C145.049 60.7767 146.346 56.5618 147.102 55.6973H147.751C148.183 55.7513 148.399 55.9674 148.399 56.3457L147.102 62.1816H147.751C150.507 58.9395 152.56 57.3184 153.911 57.3184H154.235C155.316 57.8047 155.856 58.8854 155.856 60.5605V61.8574H156.181C160.125 57.3184 162.827 55.0488 164.286 55.0488Z"
            fill="#977354"
          ></path>
          <path
            d="M179.122 54.8867C182.365 54.8867 184.202 56.9401 184.634 61.0469H184.958C186.687 61.0469 189.605 59.6419 193.712 56.832H194.361C194.793 56.8861 195.009 57.1022 195.009 57.4805V57.8047C194.144 59.5339 190.254 61.6953 183.337 64.2891C181.176 68.1797 179.014 70.125 176.853 70.125C174.043 69.4225 172.638 67.5853 172.638 64.6133C173.773 58.1289 175.934 54.8867 179.122 54.8867ZM178.474 57.4805V58.1289C178.852 60.0742 180.149 61.0469 182.365 61.0469V60.0742C181.662 57.5885 180.365 56.724 178.474 57.4805ZM176.204 60.0742C175.178 62.0736 174.772 63.7487 174.989 65.0996C175.151 66.3965 175.556 67.207 176.204 67.5312H177.177C179.014 67.5312 180.419 66.1263 181.392 63.3164C180.257 62.9382 178.528 61.8574 176.204 60.0742Z"
            fill="#977354"
          ></path>
          <path
            d="M199.389 54.5625H200.362C201.443 55.2109 201.983 55.9674 201.983 56.832C201.335 60.3444 201.01 62.6139 201.01 63.6406V65.5859H201.659C203.442 65.5859 206.468 62.5599 210.737 56.5078H211.71C211.71 56.9401 211.818 57.1562 212.034 57.1562C208.629 63.3704 205.279 66.9368 201.983 67.8555H200.686C199.389 67.153 198.741 65.9642 198.741 64.2891C198.741 63.4785 199.065 60.9928 199.713 56.832H198.741C196.796 58.1289 193.445 61.9115 188.69 68.1797H188.042C187.609 68.1797 187.393 67.9635 187.393 67.5312C188.96 59.75 190.041 55.8594 190.635 55.8594H191.284C191.716 55.8594 191.932 56.1836 191.932 56.832C191.5 58.7233 191.284 60.0202 191.284 60.7227H192.256C195.282 56.6159 197.66 54.5625 199.389 54.5625Z"
            fill="#977354"
          ></path>
          <path
            d="M234.57 0.904297H235.219C235.651 0.904297 235.867 1.22852 235.867 1.87695C235.867 3.17383 234.705 7.82096 232.382 15.8184C225.303 38.8379 221.791 51.4014 221.845 53.5088C221.088 56.9131 220.305 60.9928 219.494 65.748V67.3691C219.71 68.0176 220.359 68.3418 221.439 68.3418C224.79 68.3418 229.113 64.4512 234.408 56.6699H235.381C235.381 57.1022 235.489 57.3184 235.705 57.3184C230.572 66.1803 225.816 70.6113 221.439 70.6113C217.657 70.5573 216.603 67.5853 218.278 61.6953L215.684 65.2617C213.847 66.7747 211.902 68.0716 209.849 69.1523C206.66 69.1523 204.85 67.4232 204.418 63.9648C204.634 58.8314 207.228 54.8327 212.199 51.9688C217.225 49.0508 219.764 49.8613 219.818 54.4004C220.305 51.3203 221.331 46.7272 222.898 40.6211C229.383 16.0345 233.273 2.79557 234.57 0.904297ZM206.444 62.1006C205.904 65.613 206.958 67.126 209.605 66.6396C212.631 65.5589 215.279 63.1273 217.549 59.3447C217.711 58.6963 217.792 58.0749 217.792 57.4805C217.9 53.6979 217.17 52.2119 215.603 53.0225C211.497 53.9951 208.444 57.0212 206.444 62.1006Z"
            fill="#977354"
          ></path>
        </svg>