<svg xmlns="http://www.w3.org/2000/svg" width="21" height="20" viewBox="0 0 21 20" fill="#977354
"><path d="M6.74513 0.529396C6.41314 0.526401 6.08406 0.591401 5.77816 0.720389C5.47227 0.849378 5.19605 1.03962 4.96654 1.27939C4.72664 1.50877 4.5363 1.78484 4.40724 2.09056C4.27818 2.39629 4.21314 2.7252 4.21614 3.057C4.22052 3.34488 4.27391 3.62991 4.37401 3.89987H0.000488281V8.95609H0.843818V19.9094H19.3911V8.95509H20.2344V3.89987H15.8609C15.961 3.62991 16.0144 3.34488 16.0188 3.057C16.0218 2.7252 15.9567 2.39629 15.8277 2.09056C15.6986 1.78484 15.5083 1.50877 15.2684 1.27939C15.0409 1.04051 14.7669 0.850728 14.4632 0.72174C14.1596 0.592752 13.8327 0.527292 13.5028 0.529396C12.8147 0.533767 12.1492 0.775802 11.6193 1.21448C11.1297 1.60276 10.703 2.06425 10.3543 2.58264L10.1175 2.95215L9.88064 2.58364C9.533 2.06476 9.10733 1.6026 8.61864 1.21348C8.0919 0.776095 7.42993 0.534389 6.74513 0.529396ZM6.74513 2.21513C7.06766 2.2387 7.37331 2.36827 7.61444 2.58364C7.95181 2.85239 8.24511 3.17216 8.48375 3.53137C8.53395 3.59751 8.5781 3.66803 8.61565 3.74209L8.69458 3.89987H6.74513C6.63339 3.90375 6.52204 3.88475 6.41791 3.84405C6.31378 3.80335 6.21908 3.7418 6.13961 3.66319C6.06096 3.58377 5.99938 3.48912 5.95866 3.38505C5.91793 3.28098 5.89893 3.16968 5.9028 3.058C5.89893 2.94632 5.91793 2.83503 5.95866 2.73096C5.99938 2.62689 6.06096 2.53224 6.13961 2.45282C6.21891 2.37385 6.31354 2.31193 6.41767 2.27088C6.52181 2.22984 6.63325 2.21152 6.74513 2.21513ZM13.4898 2.21513C13.6015 2.21126 13.7129 2.23026 13.817 2.27096C13.9211 2.31166 14.0158 2.37321 14.0953 2.45182C14.1739 2.53124 14.2355 2.62589 14.2763 2.72996C14.317 2.83403 14.336 2.94533 14.3321 3.057C14.336 3.16868 14.317 3.27998 14.2763 3.38405C14.2355 3.48812 14.1739 3.58277 14.0953 3.66219C14.0158 3.7408 13.9211 3.80235 13.817 3.84305C13.7129 3.88375 13.6015 3.90275 13.4898 3.89888H11.5403L11.6193 3.74109C11.6568 3.66703 11.701 3.59651 11.7512 3.53037C11.9898 3.17116 12.2831 2.8514 12.6205 2.58264C12.8616 2.36727 13.1673 2.2387 13.4898 2.21513ZM1.68715 5.58461H18.5488V7.27035H10.9608V6.42748H9.27412V7.27035H1.68715V5.58461ZM2.53048 8.95509H17.7054V18.2237H10.9608V9.79796H9.27412V18.2247H2.52948L2.53048 8.95509Z"></path></svg>