<svg xmlns="http://www.w3.org/2000/svg" width="20" height="21" viewBox="0 0 20 21" fill="#977354
"><path d="M3.72809 0.813253L3.57022 1.47137L0.460688 15.7991L0.223877 16.8258H4.33361L3.83401 19.1696L3.5962 20.1933H9.47153L9.60343 19.5082L10.4727 15.4526H12.7379C13.7669 15.458 14.7839 15.2331 15.7146 14.7945C16.6282 14.3695 17.4308 13.7389 18.0597 12.952C18.7308 12.1168 19.1908 11.1323 19.4006 10.0818C19.5758 9.29337 19.5846 8.47709 19.4266 7.68503C19.2786 7.02142 18.9813 6.4002 18.5573 5.86847C17.9102 5.10468 17.0344 4.56931 16.0593 4.34152C15.9059 3.55907 15.531 2.83707 14.9792 2.26131C14.5105 1.77948 13.9448 1.40265 13.3195 1.15579C12.7224 0.927578 12.0882 0.811453 11.449 0.813253H3.72809ZM5.09801 2.49899H11.447C11.8795 2.50087 12.3081 2.58106 12.712 2.73567C13.1117 2.8794 13.4725 3.11392 13.7661 3.42075C14.0724 3.73645 14.2905 4.12694 14.3986 4.55324C14.5212 5.14481 14.5123 5.75606 14.3726 6.34383C14.1556 7.5172 13.5297 8.5758 12.606 9.33182C11.6823 10.0519 10.5367 10.4286 9.36562 10.3974H5.7305L4.7313 15.137H2.3332L5.09801 2.49899ZM7.23231 3.73633L7.07444 4.39445L5.96731 9.31784H8.94395C9.67228 9.32143 10.3779 9.06463 10.9334 8.59381C11.512 8.12674 11.9236 7.48482 12.1064 6.76427H12.1324V6.71134C12.2198 6.35389 12.2377 5.98302 12.1854 5.61881C12.1359 5.26985 11.9983 4.93924 11.7857 4.6581C11.5701 4.37339 11.2904 4.14348 10.9693 3.98699C10.6425 3.82201 10.2813 3.73647 9.91518 3.73733L7.23231 3.73633ZM8.57624 5.42207H9.91918C10.0133 5.41424 10.1079 5.42933 10.1949 5.46602C10.2819 5.50272 10.3587 5.55994 10.4188 5.63279C10.4816 5.73411 10.5213 5.84806 10.535 5.9665C10.5486 6.08493 10.5359 6.20492 10.4977 6.31787V6.34383C10.4101 6.70627 10.1953 7.02522 9.8922 7.24263C9.63034 7.47902 9.29611 7.61982 8.94395 7.64209H8.07464L8.57624 5.42207ZM16.1113 6.15908C16.5558 6.32487 16.9536 6.59592 17.2703 6.94902C17.5587 7.34153 17.7517 7.79574 17.8341 8.27569C17.9165 8.75565 17.886 9.24818 17.745 9.71431C17.5282 10.888 16.9023 11.947 15.9784 12.7033C15.0545 13.423 13.9089 13.7994 12.7379 13.7679H9.10282L8.10362 18.5075H5.70552L6.07423 16.8228H6.10021L6.2321 16.1377L7.10141 12.0821H9.36562C10.3948 12.088 11.4122 11.8634 12.3433 11.425C13.2569 10.9998 14.0596 10.3688 14.6884 9.58149C15.3602 8.74649 15.8209 7.76199 16.0313 6.71134C16.0486 6.60615 16.0663 6.45701 16.0843 6.26394L16.1113 6.15908Z"></path></svg>