<svg xmlns="http://www.w3.org/2000/svg" width="22" height="25" viewBox="0 0 22 25" fill="#977354
"><path d="M8.5312 0.686134C8.19895 0.683134 7.8696 0.748236 7.56347 0.877425C7.25733 1.00661 6.98089 1.19715 6.7512 1.43729C6.51111 1.66703 6.32061 1.94353 6.19145 2.24973C6.06229 2.55593 5.9972 2.88535 6.0002 3.21767V13.1868L5.4462 12.6067L5.2352 12.4216C5.00673 12.1843 4.73206 11.9964 4.42815 11.8695C4.12423 11.7425 3.79753 11.6792 3.4682 11.6835C3.13875 11.6799 2.81206 11.7439 2.50831 11.8715C2.20457 11.9992 1.93021 12.1877 1.7022 12.4256C1.46511 12.6535 1.27715 12.9275 1.14989 13.2308C1.02262 13.534 0.958752 13.8601 0.962202 14.189C0.958341 14.5184 1.02201 14.845 1.14929 15.1488C1.27656 15.4526 1.46474 15.7271 1.7022 15.9554V15.9814L8.6102 22.8128L8.6622 22.8388L8.6882 22.8918C9.27685 23.3263 9.92567 23.6727 10.6142 23.92C11.35 24.1849 12.1262 24.3203 12.9082 24.3201H14.3622C15.5787 24.3265 16.7746 24.0063 17.8252 23.3929C18.8737 22.7926 19.7429 21.9231 20.3432 20.8744C20.9545 19.8213 21.2718 18.6234 21.2622 17.4057V10.8123C21.2652 10.48 21.2001 10.1505 21.071 9.84434C20.9418 9.53813 20.7513 9.26164 20.5112 9.0319C20.2815 8.79176 20.0051 8.60122 19.6989 8.47203C19.3928 8.34284 19.0635 8.27774 18.7312 8.28074C18.3848 8.28797 18.044 8.36878 17.7312 8.51779C17.5977 7.96726 17.2802 7.47886 16.8312 7.1335C16.3907 6.7786 15.8408 6.58738 15.2752 6.59238C14.6496 6.58972 14.0464 6.8254 13.5882 7.25152C13.13 6.8254 12.5268 6.58972 11.9012 6.59238C11.6146 6.59766 11.3309 6.65143 11.0622 6.75142V3.21767C11.0652 2.88535 11.0001 2.55593 10.871 2.24973C10.7418 1.94353 10.5513 1.66703 10.3112 1.43729C10.0815 1.19715 9.80508 1.00661 9.49894 0.877425C9.1928 0.748236 8.86346 0.683134 8.5312 0.686134ZM8.5312 2.37449C8.64187 2.37349 8.75158 2.39516 8.85356 2.43817C8.95554 2.48117 9.04765 2.5446 9.1242 2.62454C9.20413 2.70111 9.26754 2.79324 9.31054 2.89524C9.35353 2.99725 9.3752 3.10698 9.3742 3.21767V12.5006H11.0622V9.12492C11.0612 9.01423 11.0829 8.9045 11.1259 8.80249C11.1689 8.70049 11.2323 8.60836 11.3122 8.53179C11.3888 8.45185 11.4809 8.38842 11.5828 8.34542C11.6848 8.30241 11.7945 8.28074 11.9052 8.28174C12.0159 8.28074 12.1256 8.30241 12.2276 8.34542C12.3295 8.38842 12.4216 8.45185 12.4982 8.53179C12.5781 8.60836 12.6415 8.70049 12.6845 8.80249C12.7275 8.9045 12.7492 9.01423 12.7482 9.12492V12.5006H14.4372V9.12492C14.4362 9.01423 14.4579 8.9045 14.5009 8.80249C14.5439 8.70049 14.6073 8.60836 14.6872 8.53179C14.7638 8.45185 14.8559 8.38842 14.9578 8.34542C15.0598 8.30241 15.1695 8.28074 15.2802 8.28174C15.3909 8.28074 15.5006 8.30241 15.6026 8.34542C15.7045 8.38842 15.7966 8.45185 15.8732 8.53179C15.9531 8.60836 16.0165 8.70049 16.0595 8.80249C16.1025 8.9045 16.1242 9.01423 16.1232 9.12492V12.5006H17.8912V10.8133C17.8902 10.7026 17.9119 10.5929 17.9549 10.4909C17.9979 10.3888 18.0613 10.2967 18.1412 10.2202C18.2178 10.1402 18.3099 10.0768 18.4118 10.0338C18.5138 9.99077 18.6235 9.9691 18.7342 9.9701C18.8449 9.9691 18.9546 9.99077 19.0566 10.0338C19.1585 10.0768 19.2506 10.1402 19.3272 10.2202C19.4071 10.2967 19.4705 10.3888 19.5135 10.4909C19.5565 10.5929 19.5782 10.7026 19.5772 10.8133V17.4067C19.5877 18.3331 19.3457 19.2449 18.8772 20.0442C18.4225 20.8237 17.7742 21.4724 16.9952 21.9276C16.1973 22.3955 15.2871 22.6375 14.3622 22.6278H12.9082C11.7515 22.623 10.6292 22.2335 9.7182 21.5205L2.8892 14.7691C2.80467 14.6966 2.73548 14.6079 2.68568 14.5083C2.63588 14.4087 2.60648 14.3001 2.5992 14.189C2.60648 14.0778 2.63588 13.9693 2.68568 13.8697C2.73548 13.77 2.80467 13.6814 2.8892 13.6089C2.96169 13.5243 3.05034 13.4551 3.14994 13.4053C3.24954 13.3555 3.35808 13.3261 3.4692 13.3188C3.58032 13.3261 3.68887 13.3555 3.78847 13.4053C3.88807 13.4551 3.97671 13.5243 4.0492 13.6089L7.6882 17.2486V3.21767C7.68694 3.10688 7.70838 2.99701 7.75121 2.89482C7.79403 2.79264 7.85733 2.70032 7.9372 2.62354C8.01387 2.54348 8.10614 2.47998 8.2083 2.43697C8.31047 2.39396 8.42036 2.37336 8.5312 2.37449Z"></path></svg>