<svg xmlns="http://www.w3.org/2000/svg" width="26" height="33" viewBox="0 0 26 33" fill="none"><path d="M24.3258 24.0736C24.3502 22.8518 24.3336 22.7722 24.2385 22.6439C24.1854 21.9494 23.5375 21.4508 23.2408 21.2255L17.3182 16.7298C16.9791 16.4722 16.3069 15.9665 15.582 16.0783C15.525 15.9002 15.4656 15.7235 15.401 15.5498C15.4817 15.5425 15.5612 15.5145 15.6244 15.4546C16.0708 15.0279 16.1643 14.4047 16.2322 13.9501L17.2657 7.07632C17.3078 6.79314 17.3882 6.23771 17.0933 5.82412C17.0957 5.58762 17.1107 5.78238 15.5117 3.63582C13.9658 1.5622 13.4302 0.846805 12.6896 0.617198C11.7107 0.317763 11.5063 0.631777 3.80323 3.59103C1.8852 4.33718 1.30418 4.9211 0.913194 7.15963C0.533218 9.32728 0.252931 11.4001 0.0564409 13.4969C-0.000386978 14.109 0.172505 14.7206 0.543813 15.2191C1.4728 16.4669 2.35171 17.431 3.28263 18.4515C4.23855 19.5003 4.17266 19.4663 4.31297 19.5135C4.56171 19.8513 4.90831 20.011 5.27049 20.0193C5.06882 20.3224 5.00983 20.693 5.06247 21.0416C4.94515 21.3742 5.23524 21.0991 5.0337 22.7353C4.86508 24.1023 4.89407 24.8878 5.95468 25.8914C5.99029 25.9415 6.02741 25.9907 6.06509 26.0359C7.48455 27.7382 9.02435 29.3564 10.7162 30.8971C12.9106 32.8956 14.0506 32.8758 16.6294 31.5008C22.3309 28.4609 23.1769 28.1599 23.7871 27.1507C24.492 26.2745 24.305 25.1892 24.3258 24.0736ZM22.7934 21.8145C23.7944 22.5748 23.6926 22.9731 22.8098 23.5198C21.0336 24.6183 19.1472 25.5569 17.2031 26.3097C13.3438 27.8075 12.6899 26.6759 6.7265 22.0577C6.20038 21.6493 5.56766 21.1268 5.84181 20.507C5.95679 20.2483 6.04793 20.3417 6.18982 20.1945C6.62088 21.2105 6.39384 21.3618 6.69953 21.514C6.81063 21.5685 6.93923 21.565 7.04676 21.5043C10.1241 19.7566 12.7734 18.5507 15.6369 17.5933C15.8161 17.5336 15.9215 17.3477 15.8806 17.1628C15.8533 17.0395 15.8166 16.9206 15.7858 16.799C16.392 16.7938 16.6566 17.1969 22.7934 21.8145ZM11.6606 8.92488C11.6541 9.80114 11.4935 11.1343 11.4398 11.4971C9.37011 12.5893 7.13721 13.4228 5.28918 13.7901C5.70591 10.7447 5.77515 10.2583 7.44889 9.33113C8.78115 8.59261 10.1984 8.00895 11.6419 7.5009C11.5041 7.81472 11.663 8.60516 11.6606 8.92488ZM5.14194 14.9806C5.38866 15.0441 5.91044 14.8728 6.09528 14.8381C6.92007 14.6833 7.73357 14.4685 8.52753 14.1969C8.85192 14.0859 11.5803 12.9433 12.5462 12.3243C13.7359 13.546 14.6221 15.1694 15.0821 17.0005C12.4305 17.9088 9.9445 19.0367 7.12237 20.6129C6.7196 19.1599 5.51306 17.5584 4.94804 16.8631C5.00261 16.2347 5.06843 15.6072 5.14194 14.9806ZM16.5341 6.96699C15.4311 14.1832 15.5066 14.5063 15.1313 14.8957C14.5348 13.5476 13.7036 12.3657 12.6889 11.4379C12.832 10.167 13.2577 7.55447 13.2958 6.95098C14.0807 6.70287 14.8667 6.46722 15.6456 6.23546C16.4912 5.98431 16.6529 6.16714 16.5341 6.96699ZM1.13713 14.777C0.875148 14.4254 0.752824 13.9954 0.793277 13.5658C0.987841 11.4891 1.26524 9.43516 1.64184 7.28677C1.77862 6.50274 1.93995 5.75627 2.39891 5.24049C2.95148 4.61907 3.14888 4.63885 11.0637 1.5616C12.9397 0.830723 12.7168 1.28675 15.9338 5.41103C15.7312 5.43833 15.5528 5.49124 15.4347 5.52655C12.6241 6.3626 9.71767 7.22754 7.09058 8.68387C5.48347 9.57459 5.09419 10.2662 4.79531 12.0916C4.46346 14.1235 4.23395 16.1942 4.10287 18.2556C3.01318 17.0576 2.10199 16.0734 1.13713 14.777ZM4.80928 18.7631C4.82418 18.4976 4.8463 18.2315 4.86466 17.9657C5.11804 18.311 5.41208 18.7389 5.68177 19.1978C5.56596 19.1949 5.51502 19.2343 5.46328 19.2515C5.13942 19.372 4.78918 19.1117 4.80928 18.7631ZM5.82577 22.2703C6.17887 22.5867 6.16221 22.5495 10.0437 25.5622C13.0204 27.8672 14.422 28.1813 17.4703 26.9993C20.4099 25.862 23.0471 24.3047 23.5892 23.8817C23.5826 24.2692 23.5726 24.5852 23.5899 24.9636C23.6126 25.4693 23.5991 26.1979 23.2206 26.6781C22.8589 27.1364 22.7208 27.1318 17.2926 29.6543C14.3283 31.0312 13.217 31.0193 10.2301 28.5226C6.40195 25.3214 6.06575 25.1342 5.81243 24.469C5.57283 23.8397 5.75361 23.1273 5.82577 22.2703Z" fill="#41381E"></path><path d="M13.6638 19.2784C13.4433 19.472 13.3542 19.7595 13.4259 20.048C13.4313 20.0696 13.4439 20.0883 13.4508 20.1094C12.1343 21.1549 12.033 22.6169 12.903 23.4306C12.5509 23.5623 12.1902 23.6912 11.8155 23.8131C11.6209 23.8762 11.5145 24.0847 11.5781 24.2788C11.642 24.4769 11.8552 24.5791 12.0438 24.5162C12.1139 24.4934 12.1797 24.4686 12.2492 24.4454C13.5097 24.6025 14.7713 23.9871 15.9092 23.3728C19.5338 21.4162 19.4294 21.4649 19.5462 21.286C19.6413 21.1403 19.6486 20.9212 19.5145 20.8102C19.5083 20.8051 19.5004 20.8057 19.494 20.8012C19.5487 20.4797 19.2011 20.2564 18.9325 20.4285C18.6656 20.5995 18.3928 20.7662 18.1145 20.9322C17.9502 19.8795 16.8504 19.048 15.184 19.3421C14.8303 18.9617 14.0243 18.9628 13.6638 19.2784ZM17.3924 21.3496C16.0431 22.1122 14.8686 22.6533 13.7277 23.1075C12.7135 22.6036 12.9634 21.4239 13.9389 20.6681C14.5007 20.9419 15.1893 20.5941 15.3427 20.058C16.7017 19.8314 17.4969 20.5479 17.3924 21.3496Z" fill="#41381E"></path><path d="M20.6243 9.41397C20.448 9.31283 20.2212 9.37351 20.1196 9.55074L17.9606 13.3178C17.8187 13.5653 17.9993 13.8716 18.2809 13.8716C18.4094 13.8716 18.5342 13.8046 18.6021 13.6857L20.7611 9.91868C20.8627 9.74145 20.8015 9.51558 20.6243 9.41397Z" fill="#41381E"></path><path d="M19.7781 15.6111C19.9784 15.6111 19.8195 15.6269 24.0031 13.0365C24.1765 12.9281 24.229 12.7004 24.1207 12.527C24.0128 12.3541 23.7855 12.3016 23.6111 12.4095L19.5816 14.9277C19.2662 15.1249 19.4092 15.6111 19.7781 15.6111Z" fill="#41381E"></path><path d="M25.63 17.4156L21.6005 16.9124C21.3982 16.8864 21.2123 17.0304 21.1878 17.2336C21.1622 17.4363 21.3062 17.6213 21.509 17.6463C25.0362 18.086 25.5354 18.1525 25.5847 18.1525C25.7687 18.1525 25.9281 18.0157 25.9512 17.8284C25.9767 17.6256 25.8327 17.4407 25.63 17.4156Z" fill="#41381E"></path></svg>